# xmcd
#
# Track frame offsets:
#	187
#	22155
#	46670
#	69625
#	90772
#	115970
#	137922
#	164327
#	192457
#	218070
#	243075
#	260147
#	280195
#
# Disc length: 3936 seconds
#
# Revision: 1
# Processed by: cddbd v1.5.1PL0 Copyright (c) Steve Scherf et al.
# Submitted via: CDex 1.50Beta5
#
DISCID=ba0f5e0d
DTITLE=ラルクアンシエル - ピアノソロインストラメンツ
DYEAR=1900
DGENRE=
TTITLE0=snow drop
TTITLE1=forbidden lover
TTITLE2=HONEY
TTITLE3=winter fall
TTITLE4=夏の憂鬱(time to say good-bye)
TTITLE5=花葬
TTITLE6=flower
TTITLE7=風にきえないで
TTITLE8=Vivid Colors
TTITLE9=Lies and Truth
TTITLE10=DIVE TO BLUE
TTITLE11=虹
TTITLE12=あなた
EXTD=
EXTT0=
EXTT1=
EXTT2=
EXTT3=
EXTT4=
EXTT5=
EXTT6=
EXTT7=
EXTT8=
EXTT9=
EXTT10=
EXTT11=
EXTT12=
PLAYORDER=
